<svg xmlns="http://www.w3.org/2000/svg" width="1100" height="760" viewBox="0 0 1100 760">
<defs><marker id="arrow" markerWidth="10" markerHeight="10" refX="8" refY="3" orient="auto" markerUnits="strokeWidth"><path d="M0,0 L0,6 L9,3 z" fill="#aaaaaa"/></marker></defs>
<rect width="100%" height="100%" fill="white"/>
<text x="550.0" y="34" text-anchor="middle" font-family="sans-serif" font-size="24">Baseline and Keep Progress from results.tsv</text>
<line x1="90.0" y1="70" x2="90.0" y2="650" stroke="#e5e5e5" stroke-width="1"/>
<line x1="90" y1="70.0" x2="1060" y2="70.0" stroke="#e5e5e5" stroke-width="1"/>
<line x1="284.0" y1="70" x2="284.0" y2="650" stroke="#e5e5e5" stroke-width="1"/>
<line x1="90" y1="186.0" x2="1060" y2="186.0" stroke="#e5e5e5" stroke-width="1"/>
<line x1="478.0" y1="70" x2="478.0" y2="650" stroke="#e5e5e5" stroke-width="1"/>
<line x1="90" y1="302.0" x2="1060" y2="302.0" stroke="#e5e5e5" stroke-width="1"/>
<line x1="672.0" y1="70" x2="672.0" y2="650" stroke="#e5e5e5" stroke-width="1"/>
<line x1="90" y1="418.0" x2="1060" y2="418.0" stroke="#e5e5e5" stroke-width="1"/>
<line x1="866.0" y1="70" x2="866.0" y2="650" stroke="#e5e5e5" stroke-width="1"/>
<line x1="90" y1="534.0" x2="1060" y2="534.0" stroke="#e5e5e5" stroke-width="1"/>
<line x1="1060.0" y1="70" x2="1060.0" y2="650" stroke="#e5e5e5" stroke-width="1"/>
<line x1="90" y1="650.0" x2="1060" y2="650.0" stroke="#e5e5e5" stroke-width="1"/>
<line x1="90" y1="650" x2="1060" y2="650" stroke="#222" stroke-width="2"/>
<line x1="90" y1="70" x2="90" y2="650" stroke="#222" stroke-width="2"/>
<text x="90.0" y="678" text-anchor="middle" font-family="sans-serif" font-size="14">88</text>
<text x="78" y="655.0" text-anchor="end" font-family="sans-serif" font-size="14">3.908</text>
<text x="284.0" y="678" text-anchor="middle" font-family="sans-serif" font-size="14">873</text>
<text x="78" y="539.0" text-anchor="end" font-family="sans-serif" font-size="14">3.928</text>
<text x="478.0" y="678" text-anchor="middle" font-family="sans-serif" font-size="14">1658</text>
<text x="78" y="423.0" text-anchor="end" font-family="sans-serif" font-size="14">3.948</text>
<text x="672.0" y="678" text-anchor="middle" font-family="sans-serif" font-size="14">2444</text>
<text x="78" y="307.0" text-anchor="end" font-family="sans-serif" font-size="14">3.968</text>
<text x="866.0" y="678" text-anchor="middle" font-family="sans-serif" font-size="14">3229</text>
<text x="78" y="191.0" text-anchor="end" font-family="sans-serif" font-size="14">3.988</text>
<text x="1060.0" y="678" text-anchor="middle" font-family="sans-serif" font-size="14">4014</text>
<text x="78" y="75.0" text-anchor="end" font-family="sans-serif" font-size="14">4.008</text>
<text x="550.0" y="730" text-anchor="middle" font-family="sans-serif" font-size="18">TP: average compress throughput across fast cases (MiB/s)</text>
<text x="26" y="380.0" text-anchor="middle" font-family="sans-serif" font-size="18" transform="rotate(-90 26 380.0)">Compression ratio (input bytes / compressed bytes)</text>
<text x="550.0" y="58" text-anchor="middle" font-family="sans-serif" font-size="13" fill="#666666">Ratio is flat because all plotted baseline and keep rows in results.tsv record the same compressed sizes.</text>
<line x1="134.1" y1="360.0" x2="169.7" y2="360.0" stroke="#aaaaaa" stroke-width="2" marker-end="url(#arrow)"/>
<line x1="169.7" y1="360.0" x2="787.7" y2="360.0" stroke="#aaaaaa" stroke-width="2" marker-end="url(#arrow)"/>
<line x1="787.7" y1="360.0" x2="812.9" y2="360.0" stroke="#aaaaaa" stroke-width="2" marker-end="url(#arrow)"/>
<line x1="812.9" y1="360.0" x2="818.9" y2="360.0" stroke="#aaaaaa" stroke-width="2" marker-end="url(#arrow)"/>
<line x1="818.9" y1="360.0" x2="836.5" y2="360.0" stroke="#aaaaaa" stroke-width="2" marker-end="url(#arrow)"/>
<line x1="836.5" y1="360.0" x2="847.0" y2="360.0" stroke="#aaaaaa" stroke-width="2" marker-end="url(#arrow)"/>
<line x1="847.0" y1="360.0" x2="847.0" y2="360.0" stroke="#aaaaaa" stroke-width="2" marker-end="url(#arrow)"/>
<line x1="847.0" y1="360.0" x2="986.8" y2="360.0" stroke="#aaaaaa" stroke-width="2" marker-end="url(#arrow)"/>
<line x1="986.8" y1="360.0" x2="1015.9" y2="360.0" stroke="#aaaaaa" stroke-width="2" marker-end="url(#arrow)"/>
<g><title>step 1: baseline | TP=266.14 MiB/s | ratio=3.958% | baseline</title><circle cx="134.1" cy="360.0" r="7" fill="#1f77b4" stroke="white" stroke-width="1.5"/><text x="144.1" y="350.0" font-family="sans-serif" font-size="12">1</text></g>
<g><title>step 3: keep | TP=410.20 MiB/s | ratio=3.958% | skip sequence self-validation outside debug builds</title><circle cx="169.7" cy="360.0" r="7" fill="#2ca02c" stroke="white" stroke-width="1.5"/><text x="179.7" y="350.0" font-family="sans-serif" font-size="12">3</text></g>
<g><title>step 5: keep | TP=2912.07 MiB/s | ratio=3.958% | skip compression attempt for sampled incompressible fast blocks</title><circle cx="787.7" cy="360.0" r="7" fill="#2ca02c" stroke="white" stroke-width="1.5"/><text x="797.7" y="350.0" font-family="sans-serif" font-size="12">5</text></g>
<g><title>step 6: keep | TP=3014.33 MiB/s | ratio=3.958% | u32 prefix compare and chunked match extension in LZ77</title><circle cx="812.9" cy="360.0" r="7" fill="#2ca02c" stroke="white" stroke-width="1.5"/><text x="822.9" y="350.0" font-family="sans-serif" font-size="12">6</text></g>
<g><title>step 7: baseline | TP=3038.57 MiB/s | ratio=3.958% | baseline</title><circle cx="818.9" cy="360.0" r="7" fill="#1f77b4" stroke="white" stroke-width="1.5"/><text x="828.9" y="350.0" font-family="sans-serif" font-size="12">7</text></g>
<g><title>step 8: keep | TP=3109.72 MiB/s | ratio=3.958% | sparser middle reinsertion in LZ77 skip</title><circle cx="836.5" cy="360.0" r="7" fill="#2ca02c" stroke="white" stroke-width="1.5"/><text x="846.5" y="350.0" font-family="sans-serif" font-size="12">8</text></g>
<g><title>step 9: keep | TP=3152.13 MiB/s | ratio=3.958% | step 8 reinsertion for very long LZ77 matches</title><circle cx="847.0" cy="360.0" r="7" fill="#2ca02c" stroke="white" stroke-width="1.5"/><text x="857.0" y="350.0" font-family="sans-serif" font-size="12">9</text></g>
<g><title>step 11: baseline | TP=3152.30 MiB/s | ratio=3.958% | baseline</title><circle cx="847.0" cy="360.0" r="7" fill="#1f77b4" stroke="white" stroke-width="1.5"/><text x="857.0" y="350.0" font-family="sans-serif" font-size="12">11</text></g>
<g><title>step 13: keep | TP=3718.30 MiB/s | ratio=3.958% | restructure LZ77 skip insertion into prefix/middle/suffix loops</title><circle cx="986.8" cy="360.0" r="7" fill="#2ca02c" stroke="white" stroke-width="1.5"/><text x="996.8" y="350.0" font-family="sans-serif" font-size="12">13</text></g>
<g><title>step 14: keep | TP=3835.99 MiB/s | ratio=3.958% | use unaligned u32/u64 loads in LZ77 hashing and match extension</title><circle cx="1015.9" cy="360.0" r="7" fill="#2ca02c" stroke="white" stroke-width="1.5"/><text x="1025.9" y="350.0" font-family="sans-serif" font-size="12">14</text></g>
<rect x="880" y="67" width="180" height="92" fill="white" stroke="#cccccc"/>
<circle cx="900" cy="95" r="6" fill="#1f77b4"/>
<text x="916" y="100" font-family="sans-serif" font-size="14">baseline</text>
<circle cx="900" cy="121" r="6" fill="#2ca02c"/>
<text x="916" y="126" font-family="sans-serif" font-size="14">keep</text>
<circle cx="900" cy="147" r="6" fill="#d62728"/>
<text x="916" y="152" font-family="sans-serif" font-size="14">discard</text>
</svg>